<mxfile host="app.diagrams.net" agent="Mozilla/5.0 (X11; Linux x86_64) AppleWebKit/537.36 (KHTML, like Gecko) Chrome/131.0.0.0 Safari/537.36" version="25.0.3">
  <diagram id="C5RBs43oDa-KdzZeNtuy" name="Page-1">
    <mxGraphModel dx="934" dy="562" grid="1" gridSize="10" guides="1" tooltips="1" connect="1" arrows="1" fold="1" page="1" pageScale="1" pageWidth="827" pageHeight="1169" background="#FFEFBA" math="0" shadow="0">
      <root>
        <mxCell id="WIyWlLk6GJQsqaUBKTNV-0" />
        <mxCell id="WIyWlLk6GJQsqaUBKTNV-1" parent="WIyWlLk6GJQsqaUBKTNV-0" />
        <mxCell id="NvsSnmnpLDSeDwBEW6f9-12" value="" style="edgeStyle=none;curved=1;rounded=0;orthogonalLoop=1;jettySize=auto;html=1;fontSize=12;startSize=8;endSize=8;" edge="1" parent="WIyWlLk6GJQsqaUBKTNV-1" source="NvsSnmnpLDSeDwBEW6f9-0" target="NvsSnmnpLDSeDwBEW6f9-10">
          <mxGeometry relative="1" as="geometry" />
        </mxCell>
        <mxCell id="NvsSnmnpLDSeDwBEW6f9-0" value="User Access Web" style="rounded=1;whiteSpace=wrap;html=1;" vertex="1" parent="WIyWlLk6GJQsqaUBKTNV-1">
          <mxGeometry x="280" y="40" width="120" height="60" as="geometry" />
        </mxCell>
        <mxCell id="NvsSnmnpLDSeDwBEW6f9-14" value="" style="edgeStyle=none;curved=1;rounded=0;orthogonalLoop=1;jettySize=auto;html=1;fontSize=12;startSize=8;endSize=8;" edge="1" parent="WIyWlLk6GJQsqaUBKTNV-1" source="NvsSnmnpLDSeDwBEW6f9-10">
          <mxGeometry relative="1" as="geometry">
            <mxPoint x="340" y="279.9999999999999" as="targetPoint" />
          </mxGeometry>
        </mxCell>
        <mxCell id="NvsSnmnpLDSeDwBEW6f9-10" value="user uploads a CSV with its description words" style="rounded=0;whiteSpace=wrap;html=1;" vertex="1" parent="WIyWlLk6GJQsqaUBKTNV-1">
          <mxGeometry x="280" y="160" width="120" height="60" as="geometry" />
        </mxCell>
        <mxCell id="NvsSnmnpLDSeDwBEW6f9-28" value="" style="edgeStyle=none;curved=1;rounded=0;orthogonalLoop=1;jettySize=auto;html=1;fontSize=12;startSize=8;endSize=8;" edge="1" parent="WIyWlLk6GJQsqaUBKTNV-1" source="NvsSnmnpLDSeDwBEW6f9-15">
          <mxGeometry relative="1" as="geometry">
            <mxPoint x="340" y="400" as="targetPoint" />
          </mxGeometry>
        </mxCell>
        <mxCell id="NvsSnmnpLDSeDwBEW6f9-15" value="Verify the upload file and words" style="rhombus;whiteSpace=wrap;html=1;" vertex="1" parent="WIyWlLk6GJQsqaUBKTNV-1">
          <mxGeometry x="300" y="280" width="80" height="80" as="geometry" />
        </mxCell>
        <mxCell id="NvsSnmnpLDSeDwBEW6f9-25" value="" style="edgeStyle=elbowEdgeStyle;elbow=horizontal;endArrow=classic;html=1;curved=0;rounded=0;endSize=8;startSize=8;fontSize=12;" edge="1" parent="WIyWlLk6GJQsqaUBKTNV-1">
          <mxGeometry width="50" height="50" relative="1" as="geometry">
            <mxPoint x="380" y="320" as="sourcePoint" />
            <mxPoint x="400" y="198" as="targetPoint" />
            <Array as="points">
              <mxPoint x="440" y="290" />
            </Array>
          </mxGeometry>
        </mxCell>
        <mxCell id="NvsSnmnpLDSeDwBEW6f9-26" value="False" style="text;html=1;align=center;verticalAlign=middle;resizable=0;points=[];autosize=1;strokeColor=none;fillColor=none;fontSize=16;" vertex="1" parent="WIyWlLk6GJQsqaUBKTNV-1">
          <mxGeometry x="375" y="291" width="60" height="30" as="geometry" />
        </mxCell>
        <mxCell id="NvsSnmnpLDSeDwBEW6f9-35" value="" style="edgeStyle=none;curved=1;rounded=0;orthogonalLoop=1;jettySize=auto;html=1;fontSize=12;startSize=8;endSize=8;" edge="1" parent="WIyWlLk6GJQsqaUBKTNV-1" source="NvsSnmnpLDSeDwBEW6f9-33">
          <mxGeometry relative="1" as="geometry">
            <mxPoint x="340" y="520" as="targetPoint" />
          </mxGeometry>
        </mxCell>
        <mxCell id="NvsSnmnpLDSeDwBEW6f9-33" value="Choose the desired analysis format" style="rounded=0;whiteSpace=wrap;html=1;" vertex="1" parent="WIyWlLk6GJQsqaUBKTNV-1">
          <mxGeometry x="280" y="400" width="120" height="60" as="geometry" />
        </mxCell>
        <mxCell id="NvsSnmnpLDSeDwBEW6f9-40" value="" style="edgeStyle=none;curved=1;rounded=0;orthogonalLoop=1;jettySize=auto;html=1;fontSize=12;startSize=8;endSize=8;" edge="1" parent="WIyWlLk6GJQsqaUBKTNV-1" source="NvsSnmnpLDSeDwBEW6f9-37" target="NvsSnmnpLDSeDwBEW6f9-39">
          <mxGeometry relative="1" as="geometry" />
        </mxCell>
        <mxCell id="NvsSnmnpLDSeDwBEW6f9-41" value="" style="edgeStyle=none;curved=1;rounded=0;orthogonalLoop=1;jettySize=auto;html=1;fontSize=12;startSize=8;endSize=8;" edge="1" parent="WIyWlLk6GJQsqaUBKTNV-1" source="NvsSnmnpLDSeDwBEW6f9-37" target="NvsSnmnpLDSeDwBEW6f9-39">
          <mxGeometry relative="1" as="geometry" />
        </mxCell>
        <mxCell id="NvsSnmnpLDSeDwBEW6f9-44" value="" style="edgeStyle=none;curved=1;rounded=0;orthogonalLoop=1;jettySize=auto;html=1;fontSize=12;startSize=8;endSize=8;" edge="1" parent="WIyWlLk6GJQsqaUBKTNV-1" source="NvsSnmnpLDSeDwBEW6f9-37">
          <mxGeometry relative="1" as="geometry">
            <mxPoint x="340" y="680" as="targetPoint" />
          </mxGeometry>
        </mxCell>
        <mxCell id="NvsSnmnpLDSeDwBEW6f9-37" value="Ask user whether need suggest new variables&amp;nbsp;" style="rhombus;whiteSpace=wrap;html=1;" vertex="1" parent="WIyWlLk6GJQsqaUBKTNV-1">
          <mxGeometry x="285" y="520" width="110" height="80" as="geometry" />
        </mxCell>
        <mxCell id="NvsSnmnpLDSeDwBEW6f9-38" value="True" style="text;html=1;align=center;verticalAlign=middle;resizable=0;points=[];autosize=1;strokeColor=none;fillColor=none;fontSize=16;" vertex="1" parent="WIyWlLk6GJQsqaUBKTNV-1">
          <mxGeometry x="340" y="360" width="60" height="30" as="geometry" />
        </mxCell>
        <mxCell id="NvsSnmnpLDSeDwBEW6f9-59" value="" style="edgeStyle=none;curved=1;rounded=0;orthogonalLoop=1;jettySize=auto;html=1;fontSize=12;startSize=8;endSize=8;exitX=0.462;exitY=1;exitDx=0;exitDy=0;exitPerimeter=0;entryX=0.459;entryY=-0.033;entryDx=0;entryDy=0;entryPerimeter=0;" edge="1" parent="WIyWlLk6GJQsqaUBKTNV-1" source="NvsSnmnpLDSeDwBEW6f9-39" target="NvsSnmnpLDSeDwBEW6f9-58">
          <mxGeometry relative="1" as="geometry" />
        </mxCell>
        <mxCell id="NvsSnmnpLDSeDwBEW6f9-39" value="Request LM to generate variables" style="shape=parallelogram;perimeter=parallelogramPerimeter;whiteSpace=wrap;html=1;fixedSize=1;" vertex="1" parent="WIyWlLk6GJQsqaUBKTNV-1">
          <mxGeometry x="460" y="530" width="130" height="60" as="geometry" />
        </mxCell>
        <mxCell id="NvsSnmnpLDSeDwBEW6f9-42" value="True" style="text;html=1;align=center;verticalAlign=middle;resizable=0;points=[];autosize=1;strokeColor=none;fillColor=none;fontSize=16;" vertex="1" parent="WIyWlLk6GJQsqaUBKTNV-1">
          <mxGeometry x="395" y="530" width="60" height="30" as="geometry" />
        </mxCell>
        <mxCell id="NvsSnmnpLDSeDwBEW6f9-45" value="False" style="text;html=1;align=center;verticalAlign=middle;resizable=0;points=[];autosize=1;strokeColor=none;fillColor=none;fontSize=16;" vertex="1" parent="WIyWlLk6GJQsqaUBKTNV-1">
          <mxGeometry x="345" y="610" width="60" height="30" as="geometry" />
        </mxCell>
        <mxCell id="NvsSnmnpLDSeDwBEW6f9-50" value="" style="edgeStyle=none;curved=1;rounded=0;orthogonalLoop=1;jettySize=auto;html=1;fontSize=12;startSize=8;endSize=8;" edge="1" parent="WIyWlLk6GJQsqaUBKTNV-1" source="NvsSnmnpLDSeDwBEW6f9-46" target="NvsSnmnpLDSeDwBEW6f9-49">
          <mxGeometry relative="1" as="geometry" />
        </mxCell>
        <mxCell id="NvsSnmnpLDSeDwBEW6f9-46" value="Test variables" style="rhombus;whiteSpace=wrap;html=1;" vertex="1" parent="WIyWlLk6GJQsqaUBKTNV-1">
          <mxGeometry x="300" y="680" width="80" height="80" as="geometry" />
        </mxCell>
        <mxCell id="NvsSnmnpLDSeDwBEW6f9-48" value="True" style="text;html=1;align=center;verticalAlign=middle;resizable=0;points=[];autosize=1;strokeColor=none;fillColor=none;fontSize=16;" vertex="1" parent="WIyWlLk6GJQsqaUBKTNV-1">
          <mxGeometry x="345" y="760" width="60" height="30" as="geometry" />
        </mxCell>
        <mxCell id="NvsSnmnpLDSeDwBEW6f9-54" value="" style="edgeStyle=none;curved=1;rounded=0;orthogonalLoop=1;jettySize=auto;html=1;fontSize=12;startSize=8;endSize=8;" edge="1" parent="WIyWlLk6GJQsqaUBKTNV-1" source="NvsSnmnpLDSeDwBEW6f9-49" target="NvsSnmnpLDSeDwBEW6f9-53">
          <mxGeometry relative="1" as="geometry" />
        </mxCell>
        <mxCell id="NvsSnmnpLDSeDwBEW6f9-49" value="Start processing data" style="shape=parallelogram;perimeter=parallelogramPerimeter;whiteSpace=wrap;html=1;fixedSize=1;" vertex="1" parent="WIyWlLk6GJQsqaUBKTNV-1">
          <mxGeometry x="270" y="800" width="140" height="60" as="geometry" />
        </mxCell>
        <mxCell id="NvsSnmnpLDSeDwBEW6f9-56" value="" style="edgeStyle=none;curved=1;rounded=0;orthogonalLoop=1;jettySize=auto;html=1;fontSize=12;startSize=8;endSize=8;" edge="1" parent="WIyWlLk6GJQsqaUBKTNV-1" source="NvsSnmnpLDSeDwBEW6f9-53" target="NvsSnmnpLDSeDwBEW6f9-55">
          <mxGeometry relative="1" as="geometry" />
        </mxCell>
        <mxCell id="NvsSnmnpLDSeDwBEW6f9-53" value="Generate result table" style="shape=parallelogram;perimeter=parallelogramPerimeter;whiteSpace=wrap;html=1;fixedSize=1;" vertex="1" parent="WIyWlLk6GJQsqaUBKTNV-1">
          <mxGeometry x="280" y="920" width="120" height="60" as="geometry" />
        </mxCell>
        <mxCell id="NvsSnmnpLDSeDwBEW6f9-55" value="Generate analysis report" style="shape=parallelogram;perimeter=parallelogramPerimeter;whiteSpace=wrap;html=1;fixedSize=1;" vertex="1" parent="WIyWlLk6GJQsqaUBKTNV-1">
          <mxGeometry x="280" y="1040" width="120" height="60" as="geometry" />
        </mxCell>
        <mxCell id="NvsSnmnpLDSeDwBEW6f9-60" value="" style="edgeStyle=none;curved=1;rounded=0;orthogonalLoop=1;jettySize=auto;html=1;fontSize=12;startSize=8;endSize=8;" edge="1" parent="WIyWlLk6GJQsqaUBKTNV-1" source="NvsSnmnpLDSeDwBEW6f9-58" target="NvsSnmnpLDSeDwBEW6f9-46">
          <mxGeometry relative="1" as="geometry" />
        </mxCell>
        <mxCell id="NvsSnmnpLDSeDwBEW6f9-58" value="Generate new data" style="shape=parallelogram;perimeter=parallelogramPerimeter;whiteSpace=wrap;html=1;fixedSize=1;" vertex="1" parent="WIyWlLk6GJQsqaUBKTNV-1">
          <mxGeometry x="452" y="690" width="146" height="60" as="geometry" />
        </mxCell>
      </root>
    </mxGraphModel>
  </diagram>
</mxfile>
